<svg xmlns="http://www.w3.org/2000/svg" width="167.752" height="42.782" viewBox="0 0 167.752 42.782">
  <g id="logo_vidara-white" transform="translate(-104.764 739.436)">
    <path id="Path_1476" data-name="Path 1476" d="M109.778-705.625a6.249,6.249,0,0,1-1.946-.3,4.254,4.254,0,0,1-2.774-2.859c-.781-2.465-.012-6.257,2.352-11.593a57.1,57.1,0,0,1,5.193-9.388,23.457,23.457,0,0,1,3.919-4.293c1.672-1.328,3.268-1.779,4.742-1.338,2.941.879,4.417,4.808,4.935,13.138l-3.883.241c-.554-8.916-2.151-9.646-2.167-9.652h-.006c-.1,0-1.31.079-4.424,4.236a53.393,53.393,0,0,0-4.75,8.631c-2.705,6.108-2.368,8.312-2.2,8.841.087.276.167.3.267.334,1.017.331,2.7-.133,4.746-1.306a43.487,43.487,0,0,0,7.418-5.763,192.929,192.929,0,0,0,14.2-15.27c1.163-1.353,2.167-2.521,2.908-3.338,2.066-2.277,5.213-4.814,8.477-3.968a5.51,5.51,0,0,1,3.864,4.2c.581,2.49.639,7.828.141,12.981l-3.873-.374c.447-4.628.422-9.668-.057-11.724a1.692,1.692,0,0,0-1.051-1.318c-.808-.209-2.445.42-4.618,2.816-.706.778-1.695,1.929-2.84,3.26a196.069,196.069,0,0,1-14.51,15.589C117.853-708.29,113.311-705.625,109.778-705.625Z" transform="translate(0)" fill="#a4d65e"/>
    <g id="Group_538" data-name="Group 538" transform="translate(122.181 -730.464)">
      <path id="Path_1477" data-name="Path 1477" d="M1550.723-583.235h0a13,13,0,0,0-2.6-7.4,13.37,13.37,0,0,0-9.642-5.4,15.255,15.255,0,0,0-10.72,2.428c-5.878,4.021-6.793,12.013-4.671,17.491,2.093,5.4,6.365,8.293,12.689,8.6.173.011.351.016.561.016a19.048,19.048,0,0,0,3.4-.371,12.876,12.876,0,0,0,7.16-3.7v2.615a1.449,1.449,0,0,0,1.447,1.447h.926a1.446,1.446,0,0,0,1.4-1.072l.02-.064a1.915,1.915,0,0,0,.107-.608c0-1.352,0-2.748,0-3.98C1550.806-576.142,1550.818-579.764,1550.723-583.235Zm-3.83,1.4a10.391,10.391,0,0,1-2.886,7.56,10.448,10.448,0,0,1-7.579,2.88,10.437,10.437,0,0,1-7.572-2.9,10.375,10.375,0,0,1-2.887-7.56,10.339,10.339,0,0,1,2.9-7.513,10.448,10.448,0,0,1,7.576-2.9h.035A9.984,9.984,0,0,1,1546.893-581.831Z" transform="translate(-1400.468 601.25)" fill="#fff"/>
      <path id="Path_1478" data-name="Path 1478" d="M1033.145-580.615h0a29.4,29.4,0,0,0-.351-4.349,12.344,12.344,0,0,0-4.064-7.445c-3.219-2.855-7.287-4.012-12.091-3.439a13.045,13.045,0,0,0-9.4,5.2,15.062,15.062,0,0,0-2.31,13.087c1.511,6.117,6.408,9.937,13.1,10.219.169.008.342.011.512.011a20.735,20.735,0,0,0,3.5-.359,12.7,12.7,0,0,0,7.205-3.713v2.621a1.449,1.449,0,0,0,1.447,1.447h1.024a1.449,1.449,0,0,0,1.447-1.447v-1.045q0-1.54,0-3.081v-.662C1033.167-575.879,1033.171-578.267,1033.145-580.615Zm-3.893-1.06a10.4,10.4,0,0,1-2.88,7.564,10.423,10.423,0,0,1-7.571,2.89h-.014a10.42,10.42,0,0,1-7.572-2.894,10.374,10.374,0,0,1-2.89-7.546,9.994,9.994,0,0,1,10.422-10.429h.033a10.436,10.436,0,0,1,7.576,2.9A10.335,10.335,0,0,1,1029.252-581.675Z" transform="translate(-933.559 601.087)" fill="#fff"/>
      <path id="Path_1479" data-name="Path 1479" d="M1354.544-594.2a1.906,1.906,0,0,0-.347-.8,1.947,1.947,0,0,0-1.169-.752l-.055-.012-.042,0-.138-.018a17.216,17.216,0,0,0-5.382.194,13.483,13.483,0,0,0-7.316,3.775c0-.579,0-1.16-.011-1.732,0-.011,0-.022,0-.034l.006-.051a2.071,2.071,0,0,0-.442-1.636,1.959,1.959,0,0,0-1.43-.634,1.9,1.9,0,0,0-1.5.53,1.967,1.967,0,0,0-.52,1.554c0,.023,0,.045,0,.067a1.582,1.582,0,0,0-.01.249V-569.6c0,.194.014.41.03.66,0,.055.005.11.008.165,0,.036,0,.071.006.112a1.448,1.448,0,0,0,1.447,1.37h.962a1.448,1.448,0,0,0,1.448-1.446v-1q0-1.445-.005-2.894l0-.965c-.01-2.762-.023-5.893.054-8.91a9.421,9.421,0,0,1,3.487-7.183,10.716,10.716,0,0,1,8.411-2.264c.108.009.212.021.31.036a.741.741,0,0,0,.116.015,1.932,1.932,0,0,0,1.225-.3,1.953,1.953,0,0,0,.607-.629,1.921,1.921,0,0,0,.282-1.007A1.714,1.714,0,0,0,1354.544-594.2Z" transform="translate(-1232.84 601.02)" fill="#fff"/>
      <path id="Path_1480" data-name="Path 1480" d="M310.713-595.223l0-.005a1.905,1.905,0,0,0-1.412-.682,1.908,1.908,0,0,0-2.11,1.97l-.006.088c-.033.353-.062.709-.091,1.065l-.006.077a28.593,28.593,0,0,1-.334,2.858,48.064,48.064,0,0,1-4.13,12.9,13.544,13.544,0,0,1-3.9,5.1,3.019,3.019,0,0,1-3.861.051,11.577,11.577,0,0,1-2.048-2.02,26.8,26.8,0,0,1-3.915-7.834,43.129,43.129,0,0,1-2.6-12.132,2.148,2.148,0,0,0-.858-1.777,2.334,2.334,0,0,0-2.073-.165,1.449,1.449,0,0,0-1,1.451c.005.109.01.216.014.322s.009.225.015.326c.015.5.034.993.094,1.491a51.277,51.277,0,0,0,3.993,15,21.649,21.649,0,0,0,5.027,7.581,7.882,7.882,0,0,0,5.218,2.35,7.4,7.4,0,0,0,4.453-1.7,16.91,16.91,0,0,0,4.362-5.338,42.14,42.14,0,0,0,4.369-11.726c.4-1.829.648-3.693.883-5.5l0-.032c.087-.668.173-1.323.267-1.983l.008-.067A2.058,2.058,0,0,0,310.713-595.223Z" transform="translate(-282.354 601.018)" fill="#fff"/>
      <path id="Path_1481" data-name="Path 1481" d="M609.072-594.436a2.022,2.022,0,0,0-1.5-1.248,1.923,1.923,0,0,0-2.044.955,2.858,2.858,0,0,0-.227,1.28v.049q-.005,12.033,0,24.066c0,.213.013.423.028.638l0,.039c0,.068.009.137.013.207a1.447,1.447,0,0,0,1.445,1.369h.961a1.449,1.449,0,0,0,1.447-1.447V-593.3c0-.029,0-.059,0-.088v-.019A2.576,2.576,0,0,0,609.072-594.436Z" transform="translate(-573.622 600.833)" fill="#fff"/>
      <path id="Path_1482" data-name="Path 1482" d="M706.912-645.585c0-.019,0-.039,0-.059a2.143,2.143,0,0,0-.155-1.07,1.959,1.959,0,0,0-1.854-1.226,2.24,2.24,0,0,0-1.665,1.069,2.191,2.191,0,0,0-.232,1.265v.017c0,.026.005.05.005.074v3.117q0,1.892,0,3.784a10.205,10.205,0,0,0-1.037-1.038c-2.921-2.492-6.682-3.539-11.177-3.112a12.994,12.994,0,0,0-9.5,4.876,15.055,15.055,0,0,0-2.057,15.122c2.008,5.363,6.263,8.244,12.652,8.564.187.008.377.011.565.011a19.913,19.913,0,0,0,3.467-.367,12.712,12.712,0,0,0,7.9-4.618,14.309,14.309,0,0,0,3.086-9.329c.007-3.716.008-7.783,0-12.431v-4.65ZM703-628.512v.018a10.338,10.338,0,0,1-2.911,7.538,10.46,10.46,0,0,1-7.562,2.874H692.5a9.987,9.987,0,0,1-10.427-10.426,10.383,10.383,0,0,1,2.9-7.552,10.449,10.449,0,0,1,7.579-2.891,10.435,10.435,0,0,1,7.572,2.891A10.388,10.388,0,0,1,703-628.512Z" transform="translate(-639.286 647.949)" fill="#fff"/>
    </g>
  </g>
</svg>
